<?xml version="1.0" encoding="UTF-8" standalone="no"?>
<svg
   xmlns:dc="http://purl.org/dc/elements/1.1/"
   xmlns:cc="http://creativecommons.org/ns#"
   xmlns:rdf="http://www.w3.org/1999/02/22-rdf-syntax-ns#"
   xmlns:svg="http://www.w3.org/2000/svg"
   xmlns="http://www.w3.org/2000/svg"
   xmlns:sodipodi="http://sodipodi.sourceforge.net/DTD/sodipodi-0.dtd"
   xmlns:inkscape="http://www.inkscape.org/namespaces/inkscape"
   viewBox="0 0 90 90"
   version="1.1"
   id="svg19"
   sodipodi:docname="penguin.svg"
   inkscape:version="0.92.2 5c3e80d, 2017-08-06">
  <metadata
     id="metadata23">
    <rdf:RDF>
      <cc:Work
         rdf:about="">
        <dc:format>image/svg+xml</dc:format>
        <dc:type
           rdf:resource="http://purl.org/dc/dcmitype/StillImage" />
        <dc:title>penguin</dc:title>
      </cc:Work>
    </rdf:RDF>
  </metadata>
  <sodipodi:namedview
     pagecolor="#ffffff"
     bordercolor="#666666"
     borderopacity="1"
     objecttolerance="10"
     gridtolerance="10"
     guidetolerance="10"
     inkscape:pageopacity="0"
     inkscape:pageshadow="2"
     inkscape:window-width="1366"
     inkscape:window-height="706"
     id="namedview21"
     showgrid="false"
     inkscape:zoom="1.3111111"
     inkscape:cx="91.161172"
     inkscape:cy="24.931351"
     inkscape:window-x="0"
     inkscape:window-y="34"
     inkscape:window-maximized="1"
     inkscape:current-layer="svg19" />
  <defs
     id="defs4">
    <style
       id="style2">.cls-1{fill:#ffa400;}.cls-2{fill:#e6e6e6;}.cls-3{fill:#404041;}.cls-4{fill:#fff;}.cls-5{fill:#2b2b2b;}</style>
  </defs>
  <title
     id="title6">penguin</title>
  <g
     id="penguin"
     transform="translate(-0.02565498,-1.5254237)">
    <path
       class="cls-1"
       d="m 51.86,28.64 a 7.39,7.39 0 0 1 5.32,-8 l 0.6,-0.18 h 1.67 l 13.62,0.68 a 1.67,1.67 0 0 1 1,3 L 61,34.2 a 7.41,7.41 0 0 1 -1.78,0.6 v 0 a 7.22,7.22 0 0 1 -7.36,-6.16 z"
       id="path8"
       inkscape:connector-curvature="0"
       style="fill:#ffa400" />
    <path
       class="cls-2"
       d="M 61.25,42.32 61,35.87 v 0 l 0.22,6.46 c 2.54,3 14.58,18.1 14.58,37.6 q 0,1 0,1.94 A 3.33,3.33 0 0 1 72.44,85 H 17.83 c 0,-3.79 23.44,-9.91 23.44,-19.73 0.01,-16.64 13.37,-21.54 19.98,-22.95 z"
       id="path10"
       inkscape:connector-curvature="0"
       style="fill:#e6e6e6" />
    <path
       class="cls-3"
       d="m 61,34.2 c -3.85,0.13 -7.43,-0.9 -8,-5.12 a 7.93,7.93 0 0 1 5.73,-8.4 l 0.64,-0.19 A 23.34,23.34 0 0 0 30.92,5.9 23,23 0 0 0 14.25,28.15 v 0.12 c 0,2.11 -0.19,33.58 0,53.46 0,1.82 2,3.26 3.79,3.26 h 3.42 A 19.77,19.77 0 0 0 41.28,65.27 v 0 c 0,-16.65 13.36,-21.54 20,-23 z"
       id="path12"
       inkscape:connector-curvature="0"
       style="fill:#404041" />
    <path
       class="cls-4"
       d="m 33.86,24.17 a 6.7,6.7 0 1 0 6.7,-6.67 6.68,6.68 0 0 0 -6.7,6.67 z m 2.91,0 a 3.79,3.79 0 1 1 3.79,3.77 3.78,3.78 0 0 1 -3.79,-3.77 z"
       id="path14"
       inkscape:connector-curvature="0"
       style="fill:#ffffff" />
    <ellipse
       class="cls-5"
       cx="40.560001"
       cy="24.17"
       rx="3.79"
       ry="3.77"
       id="ellipse16"
       style="fill:#2b2b2b" />
  </g>
</svg>
